<svg width="40" height="39" viewBox="0 0 40 39" fill="none" xmlns="http://www.w3.org/2000/svg">
<path d="M4.648 38.136C3.208 35.832 2.2 33.528 1.624 31.224C1.048 28.92 0.76 26.616 0.76 24.312C0.76 19.992 1.816 15.864 3.928 11.928C6.04 8.08799 9.016 4.43999 12.856 0.983992L16.888 3.43199C16.984 3.52799 17.128 3.62399 17.32 3.71999C17.512 3.816 17.656 3.96 17.752 4.15199C17.848 4.344 17.896 4.632 17.896 5.01599C17.896 5.68799 17.656 6.264 17.176 6.74399C16.6 7.31999 15.832 8.37599 14.872 9.912C13.912 11.448 13.288 12.504 13 13.08C12.424 14.232 11.992 15.48 11.704 16.824C11.32 18.552 11.128 19.896 11.128 20.856C11.128 22.584 11.32 24.216 11.704 25.752C12.184 27.576 12.952 29.304 14.008 30.936C14.392 31.704 14.584 32.232 14.584 32.52C14.584 33.576 13.912 34.392 12.568 34.968L4.792 38.136H4.648ZM26.392 38.28C24.952 35.976 23.944 33.672 23.368 31.368C22.696 28.68 22.36 26.376 22.36 24.456C22.36 20.232 23.464 16.056 25.672 11.928C27.688 8.18399 30.712 4.53599 34.744 0.983992L38.632 3.57599C39.112 4.05599 39.352 4.29599 39.352 4.29599C39.544 4.67999 39.64 4.96799 39.64 5.16C39.64 5.832 39.4 6.40799 38.92 6.88799C38.44 7.36799 37.72 8.37599 36.76 9.912C35.608 11.832 34.936 12.936 34.744 13.224C33.976 14.76 33.496 15.96 33.304 16.824C33.016 18.072 32.872 19.464 32.872 21C32.872 22.248 33.112 23.832 33.592 25.752C34.072 27.576 34.84 29.304 35.896 30.936C36.184 31.512 36.328 32.088 36.328 32.664C36.328 33.624 35.704 34.392 34.456 34.968L26.536 38.136L26.392 38.28Z" fill="#7AB800"/>
</svg>
